<svg xmlns="http://www.w3.org/2000/svg" width="65.88" height="20"><g fill="#f2f2f2"><path d="M10.97 2.942a2.543 2.543 0 01-.37 1.318 3.743 3.743 0 01-.971 1.086 7.085 7.085 0 01-1.2.743 5.8 5.8 0 01-1.2.429 2.8 2.8 0 011.8 1 2.885 2.885 0 01.629 1.857 2.828 2.828 0 01-.229 1.143 3.6 3.6 0 01-.714 1.057 3.428 3.428 0 01-1.286.8 5.114 5.114 0 01-1.8.314 3.33 3.33 0 01-1.886-.371.971.971 0 01-.4-.914 3.714 3.714 0 01.2-.629l.2.086.257.109.257.086.314.086.371.057h.486a2.571 2.571 0 001.943-.739 2.343 2.343 0 00.714-1.657 1.714 1.714 0 00-.4-1.143 1.457 1.457 0 00-1.171-.457h-.4l-.343.057-.286.057-.343.086-.371.114a.634.634 0 01-.657-.629.6.6 0 01.286-.489 1.486 1.486 0 01.829-.2h.6a4.343 4.343 0 00.914-.429 6.571 6.571 0 00.943-.629 3.4 3.4 0 00.743-.943 2.314 2.314 0 00.286-1.114 1.514 1.514 0 00-.771-1.4A3.714 3.714 0 006 1.228a6.6 6.6 0 00-1.343.143.857.857 0 01.114.457 15.742 15.742 0 00-1.8 4.371 19.313 19.313 0 00-.685 4.861 7.941 7.941 0 00.371 2.885 2.771 2.771 0 01-1.314.229Q0 14.199 0 12.142a16.256 16.256 0 01.771-4.543 37.024 37.024 0 011.686-4.628A9.713 9.713 0 013.085 1.8a6.828 6.828 0 00-2.057 1.142A.686.686 0 01.6 2.6a.457.457 0 01.057-.486 4.514 4.514 0 012.028-1.2A10.028 10.028 0 016.371.26 8.542 8.542 0 018.6.514a3.714 3.714 0 011.428.686 2.828 2.828 0 01.714.857 1.971 1.971 0 01.229.886zm6.771 3.2c.371-.086.571 0 .571.286a2.086 2.086 0 01-.457.914 12.227 12.227 0 01-1.138 1.371 6.942 6.942 0 01-1.628 1.257 3.628 3.628 0 01-1.8.543 2.628 2.628 0 01-2.028-.8 2.743 2.743 0 01-.743-1.971 3.857 3.857 0 01.828-2.371 2.457 2.457 0 012-1.086 1.228 1.228 0 01.971.371 1.514 1.514 0 01.343 1.028c0 1.057-.686 2.028-2.028 2.885a1.228 1.228 0 001.171.743 3.126 3.126 0 002.028-1 11.856 11.856 0 001.914-2.171zm-4.424-.771q-.314 0-.629.514a2.628 2.628 0 00-.314 1.4 3.877 3.877 0 00.029.514 2.694 2.694 0 001.228-1.943c-.004-.628-.09-.485-.314-.485z"/><path d="M23.37 6.257a.371.371 0 01.286.086.343.343 0 01.114.257 2.077 2.077 0 01-.486.829 13.941 13.941 0 01-1.171 1.343 8.256 8.256 0 01-1.6 1.257 3.228 3.228 0 01-1.628.543 1.314 1.314 0 01-1.228-.829 4.628 4.628 0 01-.429-2.028 8.056 8.056 0 01.371-2.343 9.228 9.228 0 01.914-2.086 6.085 6.085 0 011.2-1.486 1.943 1.943 0 011.228-.57.714.714 0 01.6.286 1.086 1.086 0 01.229.686 3.371 3.371 0 01-.229 1.114 9.285 9.285 0 01-.771 1.543L19.941 6.2l-1 1.486v.057q0 1.771.743 1.771a2.387 2.387 0 001.314-.714 14.628 14.628 0 001.457-1.4c.4-.486.715-.858.915-1.143zm-2.6-4.2c-.257 0-.543.429-.857 1.228a15.513 15.513 0 00-.771 2.714 14.77 14.77 0 001.228-2.143 4.4 4.4 0 00.514-1.6c0-.113-.029-.199-.114-.199z"/><path d="M28.683 6.257a.371.371 0 01.286.086.343.343 0 01.114.257 2.077 2.077 0 01-.486.829A13.942 13.942 0 0127.426 8.8a8.257 8.257 0 01-1.6 1.257 3.228 3.228 0 01-1.628.543 1.314 1.314 0 01-1.228-.829 4.628 4.628 0 01-.429-2.057 8.056 8.056 0 01.371-2.343 9.228 9.228 0 01.914-2.086 6.085 6.085 0 011.2-1.486 1.943 1.943 0 011.229-.569.714.714 0 01.6.286 1.086 1.086 0 01.229.686 3.371 3.371 0 01-.229 1.114 9.284 9.284 0 01-.771 1.543L25.255 6.2l-1 1.486v.057q0 1.771.743 1.771a2.387 2.387 0 001.314-.714 14.626 14.626 0 001.457-1.4c.4-.486.714-.858.914-1.143zm-2.6-4.2c-.257 0-.543.429-.857 1.228a15.512 15.512 0 00-.771 2.714 14.77 14.77 0 001.228-2.143 4.4 4.4 0 00.514-1.6c.001-.113-.028-.199-.114-.199z"/><path d="M33.825 8.399a.286.286 0 01.2.257.771.771 0 01-.371.571 1.4 1.4 0 01-.857.286 1.057 1.057 0 01-.743-.286 1.086 1.086 0 01-.343-.743 3.086 3.086 0 01-1.114 1.286 2.6 2.6 0 01-1.457.514 1.343 1.343 0 01-1.028-.457 1.771 1.771 0 01-.429-1.257 3.828 3.828 0 011.143-2.628 3.417 3.417 0 012.543-1.228 1.886 1.886 0 011.286.429 1.543 1.543 0 01.571.943 6.6 6.6 0 00-.429 1.828c0 .486.143.743.429.743a1.057 1.057 0 00.599-.258zm-4.143.486q.457 0 1.171-1.086a7.428 7.428 0 00.943-1.886c-.057-.257-.2-.371-.4-.371a2.332 2.332 0 00-1.257 1.086 3.758 3.758 0 00-.714 1.8c.001.457.087.457.258.457zm16.399.2a16.942 16.942 0 001.771 2.6 3.428 3.428 0 001.371 1.028 2.514 2.514 0 01-.743 1.2 1.086 1.086 0 01-.971.257 1.628 1.628 0 01-.886-.629 5.486 5.486 0 01-.686-1.057l-.657-1.428q-.4-.914-.571-1.257a9.484 9.484 0 00-1.028-1.771 10.485 10.485 0 01-2.114.2h-.229a10.37 10.37 0 00-.483 3.172 4.285 4.285 0 00.257 1.628 4.914 4.914 0 01-1.371.143q-1.228-.086-.857-1.886.2-.869.486-1.714.286-.943.457-1.486h-.114q-1.171-.314-1.171-.8c0-.343.286-.657.829-.914a2.257 2.257 0 00.771.571l.257-1a6.571 6.571 0 00.257-1.628 1.714 1.714 0 00-.343-1.028 2.143 2.143 0 01.543-.314 1.886 1.886 0 01.686-.143.714.714 0 01.571.2 1.218 1.218 0 01.257.914 9.914 9.914 0 01-.657 3.257 7.714 7.714 0 001.712-.2 5.171 5.171 0 001.286-.457 4.457 4.457 0 00.914-.657 3.6 3.6 0 00.6-.743 4.342 4.342 0 00.343-.714 3.626 3.626 0 00.171-.571 1.829 1.829 0 00.029-.343 2.114 2.114 0 00-1-1.8 4.966 4.966 0 00-2.828-.686 6.856 6.856 0 00-1.828.257 4.543 4.543 0 00-1.571.743 1.4 1.4 0 00-.657 1.114 1.065 1.065 0 00.6.857 1.457 1.457 0 01-.6.514 1.743 1.743 0 01-.771.2 1.028 1.028 0 01-.8-.286 1.028 1.028 0 01-.257-.714 2.2 2.2 0 01.429-1.228 4.742 4.742 0 011.228-1.171A6.742 6.742 0 0140.768.4a10.485 10.485 0 012.828-.4 7.011 7.011 0 013.771.943A2.813 2.813 0 0148.881 3.4a3.628 3.628 0 01-1 2.371A6.571 6.571 0 0145.167 7.6z"/><path d="M56.712 6.114a.4.4 0 01.314.4q0 .571-.971 1.371a3.143 3.143 0 01-2 .8 1.486 1.486 0 01-.771-.2 3.628 3.628 0 01-1.086 1.257 2.657 2.657 0 01-1.543.486 1.886 1.886 0 01-1.6-.657 2.486 2.486 0 01-.543-1.6 2.571 2.571 0 01.429-1.486 1.314 1.314 0 011.143-.629h.029a1.828 1.828 0 01.686-1.086 2.028 2.028 0 011.228-.371 1.486 1.486 0 011.286.6 2.571 2.571 0 01.429 1.514 3.971 3.971 0 01-.114.971 1.171 1.171 0 00.771.229 2.028 2.028 0 001.143-.429 4.885 4.885 0 001.17-1.17zm-5.914 3.428q.571 0 .914-.886a4.685 4.685 0 00.343-1.743q0-1.428-.886-1.428a.971.971 0 00-.714.486.8.8 0 01.457.829 2.4 2.4 0 01-.143.714.914.914 0 00-.486.457 1.457 1.457 0 00-.171.686 1.114 1.114 0 00.2.657.571.571 0 00.457.229z"/><path d="M61.68 6.399q.471 0 .343.429a9.828 9.828 0 00-2.628.857 1.657 1.657 0 01.314.971 1.771 1.771 0 01-.828 1.457 3.114 3.114 0 01-2.057.571 1.4 1.4 0 01-.8-.229.657.657 0 01-.286-.543q0-.771 1.514-1.743l-.429-.457a2.086 2.086 0 01-.286-.486 1.6 1.6 0 01.229-1.743 1.971 1.971 0 01.971-.629 3.143 3.143 0 011.171-.114.857.857 0 01.629.286.943.943 0 01-.457.686 1.714 1.714 0 01-1.114.229c-.143.229.114.6.743 1.086l.257.229a7.154 7.154 0 012.714-.857zm-3.942 2.629a.771.771 0 00-.114-.371c-.771.514-1.171.914-1.171 1.171s.057.086.2.086a1.228 1.228 0 00.714-.257.771.771 0 00.371-.657z"/><path d="M65.594 8.799a.4.4 0 01.286.371 1.13 1.13 0 01-.686.943 2.771 2.771 0 01-1.4.4 2.657 2.657 0 01-1.857-.743 2.571 2.571 0 01-.8-2 3.885 3.885 0 01.829-2.4 2.457 2.457 0 012-1.086 1.228 1.228 0 01.971.371 1.514 1.514 0 01.343 1.028q0 1.657-2.114 2.914a1.171 1.171 0 001.114.828h.314l.229-.057.229-.114.2-.114.2-.143zm-1.657-3.428q-.314 0-.657.571a3.085 3.085 0 00-.314 1.514 3.141 3.141 0 000 .343 2.751 2.751 0 001.286-1.971c0-.286-.114-.457-.343-.457zM9.171 16.028h1.428l.543.057a1.314 1.314 0 01.457.171.914.914 0 01.343.314 1.257 1.257 0 01-.229 1.4 1.628 1.628 0 01-1.057.286h-1.2v1.657h-.285zm.286 1.971h1.171l.514-.057a.914.914 0 00.343-.171.657.657 0 00.2-.286 1.086 1.086 0 00.057-.371.829.829 0 00-.086-.429.629.629 0 00-.257-.257l-.371-.114H9.457zm6.571 1.943h-.314l-.4-1.028-.114-.286-.171-.229-.2-.171-.286-.057h-1.372v1.771h-.286v-3.914h1.771l.486.057a1.2 1.2 0 01.4.171.828.828 0 01.286.314 1.086 1.086 0 01.114.514 1.343 1.343 0 01-.057.371.943.943 0 01-.143.314.857.857 0 01-.257.229l-.343.143.171.171.114.171.086.2.086.257zm-2.857-2.057h1.343l.486-.057a.857.857 0 00.343-.143.571.571 0 00.2-.257 1 1 0 00.057-.371.657.657 0 00-.257-.571 1.371 1.371 0 00-.771-.171h-1.43zm6.542 2.057h-2.828v-3.914h2.714v.286h-2.428v1.457h2.286v.286h-2.286v1.6h2.543zm4.514 0h-.286v-3.428l-1.4 3.428h-.286l-1.4-3.428v3.428h-.285v-3.914h.429l1.428 3.543 1.428-3.543h.4zm1.4 0h-.286v-3.914h.286zm2.628.057l-.6-.086a1.228 1.228 0 01-.4-.2.971.971 0 01-.257-.285 1.457 1.457 0 01-.143-.343 2.028 2.028 0 01-.057-.4v-2.657h.286v2.257a2.685 2.685 0 00.086.714 1 1 0 00.229.429.829.829 0 00.371.2l.514.057.514-.057a.771.771 0 00.343-.2 1.028 1.028 0 00.229-.429 2.771 2.771 0 00.086-.714v-2.257h.286v2.257a3.542 3.542 0 01-.057.714 1.314 1.314 0 01-.229.543 1.028 1.028 0 01-.457.343 1.943 1.943 0 01-.744.114zm6.143-.057h-.286v-3.428l-1.4 3.428h-.286l-1.4-3.428v3.428h-.285v-3.914h.4l1.428 3.543 1.428-3.543h.4zm7.056-1.114a.971.971 0 01-.371.828 1.686 1.686 0 01-1.057.286h-1.429v-3.914h1.4a1.543 1.543 0 01.914.229.8.8 0 01.314.714 1.544 1.544 0 01-.029.286.829.829 0 01-.086.257l-.2.229a.771.771 0 01-.314.143 1.114 1.114 0 01.429.114.714.714 0 01.257.229.771.771 0 01.114.286 1.714 1.714 0 01.058.313zm-2.543-1.086h1.057a1.371 1.371 0 00.771-.171.728.728 0 00.029-1.086 1.228 1.228 0 00-.743-.171h-1.114zm0 1.914h1.143q1.114 0 1.114-.8a1.029 1.029 0 00-.057-.371.543.543 0 00-.2-.257.943.943 0 00-.371-.143l-.571-.057h-1.057zm6.543.286h-.314l-.4-1.028-.114-.286-.171-.229-.2-.171-.286-.057h-1.371v1.771h-.287v-3.914h1.771l.486.057a1.2 1.2 0 01.4.171.828.828 0 01.286.314 1.086 1.086 0 01.114.514 1.343 1.343 0 01-.057.371.943.943 0 01-.171.257.857.857 0 01-.257.229l-.343.143.171.171.114.171.086.2.086.257zm-2.857-2.057h1.343l.486-.057a.857.857 0 00.343-.143.571.571 0 00.2-.257 1 1 0 00.057-.371.657.657 0 00-.257-.571 1.371 1.371 0 00-.771-.171H42.57zm6.799 2.057h-.343l-.486-1.257h-1.914l-.229.629-.229.629h-.313l.371-1 .371-.971.371-.971.371-1h.4zm-.914-1.486l-.886-2.171-.857 2.171zm4.542 1.486h-.371l-2.371-3.571v3.571h-.286v-3.914h.4l2.371 3.571v-3.571h.286zm4.143-2a1.742 1.742 0 01-1.971 1.971h-1.172v-3.885h1.171a2.057 2.057 0 011.486.486 1.914 1.914 0 01.486 1.428zm-.314 0a2.828 2.828 0 00-.086-.686 1.143 1.143 0 00-.771-.829 2.6 2.6 0 00-.828-.114h-.886v3.343h.886a2.457 2.457 0 00.8-.114 1.248 1.248 0 00.8-.886 2.914 2.914 0 00.086-.714z"/></g></svg>